<?xml version="1.0" encoding="UTF-8"?>
<svg version="1.1" xmlns="http://www.w3.org/2000/svg" width="784" height="252">
<path d="M0 0 C1.53094246 1.32171366 3.0522945 2.65464088 4.5625 4 C5.2946875 4.59039063 6.026875 5.18078125 6.78125 5.7890625 C11.62067159 9.79351346 15.71362809 14.28233868 19.6875 19.125 C20.43471313 20.00406006 20.43471313 20.00406006 21.19702148 20.90087891 C23.40607625 23.68684059 24.61736524 25.27841875 24.34228516 28.89624023 C23.57424137 31.95326611 22.59635513 34.27561861 21.078125 37.02734375 C20.56161377 37.97279053 20.04510254 38.9182373 19.51293945 39.89233398 C18.95179443 40.89723877 18.39064941 41.90214355 17.8125 42.9375 C16.94274536 44.51736694 16.94274536 44.51736694 16.05541992 46.12915039 C14.23538409 49.42564762 12.40115296 52.71385512 10.5625 56 C9.99289551 57.0209375 9.42329102 58.041875 8.83642578 59.09375 C5.60816708 64.8713269 2.34704468 70.62904533 -0.94140625 76.37255859 C-2.35226865 78.85031661 -3.74096511 81.33921915 -5.125 83.83203125 C-16.46511012 104.01380506 -16.46511012 104.01380506 -24.4375 108 C-28.28036488 108.36253442 -30.6893465 108.40017513 -34.125 106.5625 C-40.24386975 99.78213082 -41.50213035 90.92741922 -43.01763916 82.18615723 C-43.38256052 80.08139305 -43.76162474 77.97958079 -44.14404297 75.87792969 C-44.9218809 71.58761609 -45.68166692 67.2942377 -46.4375 63 C-47.10136655 59.23200762 -47.76707014 55.46447011 -48.44360352 51.69873047 C-48.84213708 49.47794736 -49.23259294 47.25569172 -49.61303711 45.03173828 C-52.18627408 29.23942533 -52.18627408 29.23942533 -61.1171875 16.7578125 C-67.214791 13.20699922 -73.16569446 12.99526069 -79.9453125 14.58984375 C-94.97843228 19.70298951 -103.06323661 33.96347738 -110.4375 47 C-111.42906733 48.73539643 -112.42064693 50.47078606 -113.41313171 52.20565796 C-114.08964941 53.38874076 -114.76551971 54.57219399 -115.44075012 55.75601196 C-118.80187467 61.64867194 -122.2063593 67.51556657 -125.625 73.375 C-126.19299316 74.34888672 -126.76098633 75.32277344 -127.34619141 76.32617188 C-132.96192451 85.93292012 -138.68187803 95.47653889 -144.4375 105 C-150.10440203 99.33309797 -149.82571402 87.71327398 -149.90600586 80.12036133 C-149.89577393 79.00814209 -149.88554199 77.89592285 -149.875 76.75 C-149.86670166 75.57268311 -149.85840332 74.39536621 -149.84985352 73.18237305 C-149.36169151 47.84137946 -138.94850982 25.28246664 -120.93359375 7.42285156 C-89.19396907 -22.76294031 -35.10601608 -27.64938941 0 0 Z " fill="#1e3a8a" transform="translate(149.4375,20)"/>
<path d="M0 0 C0.66 0 1.32 0 2 0 C9.41544237 25.92094364 7.6203242 51.63268796 -4.8125 75.6875 C-7.98890774 81.27862587 -11.81784426 86.13237122 -16 91 C-16.68964844 91.8353125 -17.37929687 92.670625 -18.08984375 93.53125 C-32.14277155 109.99833357 -52.45714115 120.64986994 -74 123 C-103.87648443 124.55879659 -127.54136331 119.27530927 -150.6875 99.25 C-157.05253717 93.25882698 -164.32577322 86.11301632 -167.0859375 77.68359375 C-166.96263443 72.39837595 -164.75142519 69.16314342 -162 64.75 C-160.88829064 62.89201976 -159.77903802 61.03256797 -158.671875 59.171875 C-157.77952148 57.6859082 -157.77952148 57.6859082 -156.86914062 56.16992188 C-154.90334094 52.83607351 -153.00816344 49.46755638 -151.140625 46.078125 C-150.81678833 45.49045349 -150.49295166 44.90278198 -150.15930176 44.29730225 C-148.57976117 41.42608126 -147.004694 38.55242184 -145.4296875 35.67871094 C-129.20981486 6.29347224 -129.20981486 6.29347224 -121 3 C-113.39130435 2.45652174 -113.39130435 2.45652174 -110 5 C-106.75724486 9.43974529 -105.73339925 14.17200383 -104.53125 19.4375 C-104.31641968 20.35982422 -104.10158936 21.28214844 -103.88024902 22.23242188 C-101.36998194 33.32541165 -99.72662697 44.55203009 -98.09326172 55.80126953 C-95.61325247 76.98547728 -95.61325247 76.98547728 -84 94 C-78.01625647 96.91769313 -71.75398034 96.92193341 -65.34375 95.34765625 C-47.04816509 88.76915118 -38.03784903 69.06547797 -29.57958984 52.98974609 C-26.92786459 47.97073103 -24.21006879 42.98767549 -21.5 38 C-20.41896159 36.00537591 -19.33823229 34.01058425 -18.2578125 32.015625 C-17.45585449 30.53545898 -17.45585449 30.53545898 -16.63769531 29.02539062 C-15.52650411 26.9726355 -14.41651771 24.91922783 -13.30761719 22.86523438 C-11.6662639 19.82526983 -10.0209682 16.78746769 -8.375 13.75 C-7.87806641 12.82703125 -7.38113281 11.9040625 -6.86914062 10.953125 C-6.40443359 10.0971875 -5.93972656 9.24125 -5.4609375 8.359375 C-5.05665527 7.61139648 -4.65237305 6.86341797 -4.23583984 6.09277344 C-2.95025813 3.91576703 -1.64024663 1.9260513 0 0 Z " fill="#1e3a8a" transform="translate(181,67)"/>
<path d="M0 0 C8.25 0 16.5 0 25 0 C28.86769034 4.07675468 30.10871231 5.73029556 31.97314453 10.60693359 C34.16641695 15.71831169 37.23218769 20.4100406 40.0625 25.1875 C41.36551814 27.44587848 42.66493145 29.70634024 43.9609375 31.96875 C44.62837896 33.13162625 45.29602392 34.29438572 45.96386719 35.45703125 C46.29817749 36.03904297 46.63248779 36.62105469 46.97692871 37.22070312 C48.70262445 40.22198472 50.43316192 43.22046797 52.1640625 46.21875 C52.50318161 46.80618484 52.84230072 47.39361969 53.19169617 47.99885559 C54.19024772 49.72843244 55.18887324 51.45796658 56.1875 53.1875 C57.41035169 55.30587678 58.63301995 57.42435946 59.85546875 59.54296875 C60.62346802 60.8736438 60.62346802 60.8736438 61.40698242 62.23120117 C63.27819334 65.48352348 65.13838577 68.74217509 67 72 C67.33 48.24 67.66 24.48 68 0 C75.92 0 83.84 0 92 0 C92 37.29 92 74.58 92 113 C84.08 113 76.16 113 68 113 C67.07960938 111.4015625 66.15921875 109.803125 65.2109375 108.15625 C56.52216698 93.0756471 47.77958506 78.02811858 39 63 C32.07 51.12 32.07 51.12 25 39 C24.67 63.42 24.34 87.84 24 113 C16.08 113 8.16 113 0 113 C0 75.71 0 38.42 0 0 Z " fill="#1e3a8a" transform="translate(236,43)"/>
<path d="M0 0 C2.69336596 1.84501501 4.70348056 3.67747717 6.7734375 6.21484375 C6.7734375 6.87484375 6.7734375 7.53484375 6.7734375 8.21484375 C7.4334375 8.21484375 8.0934375 8.21484375 8.7734375 8.21484375 C9.01191406 7.62058594 9.25039063 7.02632812 9.49609375 6.4140625 C11.04444841 3.74824087 12.62458897 2.67937918 15.2109375 1.02734375 C15.99339844 0.51816406 16.77585937 0.00898437 17.58203125 -0.515625 C24.68977032 -4.63329915 36.14670688 -3.99409441 43.97265625 -1.94921875 C49.72598546 0.67634343 53.88282312 4.57033323 56.7734375 10.21484375 C58.3267868 14.93992255 59.01984828 19.01047766 59.00048828 23.97631836 C59.00033722 25.27713852 59.00018616 26.57795868 59.00003052 27.91819763 C58.98982031 29.31786252 58.97938837 30.7175258 58.96875 32.1171875 C58.96501483 33.5644969 58.96217024 35.01180886 58.96017456 36.4591217 C58.95257774 40.24849562 58.93296375 44.0377136 58.9107666 47.82702637 C58.89022253 51.70172009 58.88115462 55.57643926 58.87109375 59.45117188 C58.84971364 67.03914146 58.81456429 74.62695079 58.7734375 82.21484375 C51.1834375 82.21484375 43.5934375 82.21484375 35.7734375 82.21484375 C35.76932861 80.42344971 35.76521973 78.63205566 35.76098633 76.78637695 C35.74156871 70.85896767 35.69923008 64.93195875 35.64134693 59.00481892 C35.60709622 55.41206371 35.58197012 51.81973282 35.57788086 48.22680664 C35.57359349 44.75750267 35.54509734 41.28915552 35.50000572 37.82015038 C35.4807482 35.85661821 35.48638393 33.89289294 35.49238586 31.92927551 C35.65133542 24.84290813 35.65133542 24.84290813 32.38549805 18.90112305 C28.16624164 16.17727932 24.61697591 16.5046709 19.7734375 17.21484375 C16.07948548 18.55095405 15.10425816 19.62932001 13.17651367 23.04125977 C10.9676509 28.45620768 11.2932704 34.16771883 11.26171875 39.9296875 C11.23479195 41.74600426 11.23479195 41.74600426 11.20732117 43.59901428 C11.15332622 47.45008915 11.11935601 51.3010408 11.0859375 55.15234375 C11.05275501 57.77019939 11.01826449 60.3880388 10.98242188 63.00585938 C10.89760541 69.40876514 10.83074186 75.81163504 10.7734375 82.21484375 C3.1834375 82.21484375 -4.4065625 82.21484375 -12.2265625 82.21484375 C-12.23067139 80.42344971 -12.23478027 78.63205566 -12.23901367 76.78637695 C-12.25843129 70.85896767 -12.30076992 64.93195875 -12.35865307 59.00481892 C-12.39290378 55.41206371 -12.41802988 51.81973282 -12.42211914 48.22680664 C-12.42640651 44.75750267 -12.45490266 41.28915552 -12.49999428 37.82015038 C-12.5192518 35.85661821 -12.51361607 33.89289294 -12.50761414 31.92927551 C-12.34866458 24.84290813 -12.34866458 24.84290813 -15.61450195 18.90112305 C-19.83375836 16.17727932 -23.38302409 16.5046709 -28.2265625 17.21484375 C-31.92051452 18.55095405 -32.89574184 19.62932001 -34.82348633 23.04125977 C-37.0323491 28.45620768 -36.7067296 34.16771883 -36.73828125 39.9296875 C-36.75623245 41.14056534 -36.77418365 42.35144318 -36.79267883 43.59901428 C-36.84667378 47.45008915 -36.88064399 51.3010408 -36.9140625 55.15234375 C-36.94724499 57.77019939 -36.98173551 60.3880388 -37.01757812 63.00585938 C-37.10239459 69.40876514 -37.16925814 75.81163504 -37.2265625 82.21484375 C-44.8165625 82.21484375 -52.4065625 82.21484375 -60.2265625 82.21484375 C-60.2265625 54.49484375 -60.2265625 26.77484375 -60.2265625 -1.78515625 C-52.6365625 -1.78515625 -45.0465625 -1.78515625 -37.2265625 -1.78515625 C-36.8965625 0.85484375 -36.5665625 3.49484375 -36.2265625 6.21484375 C-35.70707031 5.73273438 -35.18757813 5.250625 -34.65234375 4.75390625 C-33.95496094 4.12226562 -33.25757813 3.490625 -32.5390625 2.83984375 C-31.85457031 2.21335937 -31.17007812 1.586875 -30.46484375 0.94140625 C-22.54491254 -5.16786006 -8.57490327 -4.61599199 0 0 Z " fill="#1e3a8a" transform="translate(448.2265625,73.78515625)"/>
<path d="M0 0 C7.26 0 14.52 0 22 0 C22.495 18.315 22.495 18.315 23 37 C25.64 34.69 28.28 32.38 31 30 C37.67044028 26.25628003 47.61289587 27.08311845 54.953125 28.6171875 C64.26701335 31.92683965 70.54228906 38.20056482 74.9375 46.9375 C81.04942183 59.955144 82.53318563 75.69949898 77.97265625 89.55078125 C73.29939514 101.31839055 67.91471846 109.46752288 56.12109375 114.87109375 C48.47027936 117.63840959 40.67204066 117.80209298 33 115 C29.09506736 112.78966077 26.04755964 110.28198731 23 107 C22.67 108.98 22.34 110.96 22 113 C14.74 113 7.48 113 0 113 C0 75.71 0 38.42 0 0 Z M27.6875 52.25 C21.9543803 61.59286173 20.9444988 71.79252793 23.20703125 82.421875 C25.06188085 88.45242051 28.47661977 93.78873242 34 97 C40.00809705 98.45357187 43.52526011 98.24429031 49 95 C55.24340218 89.17282463 57.54766825 83.21417668 58.1640625 74.74609375 C58.4667522 65.95433371 56.62281486 57.94583013 51 51 C47.72824085 47.63735865 44.86381692 46.21248641 40.12109375 45.8359375 C35.06445697 46.22705858 31.24245138 48.79112839 27.6875 52.25 Z " fill="#1e3a8a" transform="translate(525,43)"/>
<path d="M0 0 C0.89976562 -0.020625 1.79953125 -0.04125 2.7265625 -0.0625 C12.9279869 -0.12112888 22.12693663 2.38911946 29.875 9.25 C35.51771233 16.07815609 36.875 20.33930746 36.875 29.25 C29.945 29.25 23.015 29.25 15.875 29.25 C14.555 26.61 13.235 23.97 11.875 21.25 C7.16558206 17.85525705 1.4562138 17.98074324 -4.08203125 18.828125 C-6.11298562 19.24751902 -8.11839762 19.72693061 -10.125 20.25 C-10.92453138 23.53696233 -11.22158936 24.96023192 -10.125 28.25 C-7.36773029 29.53760786 -7.36773029 29.53760786 -3.875 30.5625 C-2.89635986 30.87779663 -2.89635986 30.87779663 -1.89794922 31.19946289 C2.1166029 32.47056732 6.15863125 33.60810511 10.2265625 34.6953125 C11.14147461 34.94369873 12.05638672 35.19208496 12.99902344 35.44799805 C14.78719946 35.92868541 16.57944827 36.39455361 18.37597656 36.84301758 C25.80066345 38.83263492 33.15077672 42.06317584 37.4375 48.75 C40.19382673 55.41112293 40.04013843 63.29282479 38.02734375 70.12890625 C34.35245075 78.28841443 28.66903659 83.40847612 20.375 86.625 C6.7493979 91.01672299 -9.59495417 90.63239712 -22.625 84.5625 C-30.26237268 80.3522839 -34.07755124 75.74590008 -36.6796875 67.4609375 C-37.125 65.25 -37.125 65.25 -37.125 60.25 C-29.865 60.25 -22.605 60.25 -15.125 60.25 C-14.135 62.23 -13.145 64.21 -12.125 66.25 C-7.71002461 70.51780954 -2.40548234 70.52373434 3.44921875 70.484375 C7.4817532 70.09475814 11.1287419 68.73787556 14.875 67.25 C15.60834429 63.27245872 15.60834429 63.27245872 15.875 59.25 C15.0564856 59.00890503 15.0564856 59.00890503 14.22143555 58.76293945 C7.01608539 56.62239496 -0.16199844 54.39860143 -7.31225586 52.08081055 C-8.64906954 51.65086986 -9.98797771 51.22738955 -11.32885742 50.81030273 C-20.39399557 47.98579421 -27.89297029 45.56721017 -33.0625 37.0625 C-35.26225155 29.16927386 -34.8423793 22.02211175 -31.4453125 14.5390625 C-27.06494549 6.94469839 -20.5568101 3.10957462 -12.2824707 0.71728516 C-8.23912744 -0.15845989 -4.12156271 0.02302549 0 0 Z " fill="#1e3a8a" transform="translate(745.125,70.75)"/>
<path d="M0 0 C7.26 0 14.52 0 22 0 C22.01458252 1.72033447 22.02916504 3.44066895 22.04418945 5.21313477 C22.09597567 10.91695953 22.16129744 16.62052351 22.23571491 22.32409763 C22.28031496 25.77992452 22.31959312 29.23563634 22.34643555 32.69165039 C22.37758136 36.67098813 22.43236658 40.64983649 22.48828125 44.62890625 C22.49467117 45.86145645 22.5010611 47.09400665 22.50764465 48.36390686 C22.61451279 54.63035977 22.84327876 59.5128428 26 65 C30.22945042 68.2390095 35.94289246 67.46240606 41 67 C45.1966199 65.62656076 47.76240962 63.84052169 50.1595459 60.08856201 C52.09611875 55.27610112 51.60430409 49.83492598 51.609375 44.7265625 C51.62591125 43.44768158 51.64244751 42.16880066 51.65948486 40.85116577 C51.6997459 37.46771399 51.7231238 34.08501304 51.73822021 30.70141602 C51.75784483 27.24219568 51.79980853 23.78325242 51.83984375 20.32421875 C51.91374043 13.54950988 51.96330652 6.7750084 52 0 C59.59 0 67.18 0 75 0 C75 27.72 75 55.44 75 84 C67.41 84 59.82 84 52 84 C51.67 82.02 51.34 80.04 51 78 C50.57589844 78.39832031 50.15179687 78.79664063 49.71484375 79.20703125 C42.19562565 85.99911617 35.05163291 87.9742925 25 88 C17.58076208 87.50250008 11.47569791 85.10849135 6 80 C1.39174132 73.65402087 -0.12813967 68.17030287 -0.11352539 60.39550781 C-0.11367142 59.74143448 -0.11381744 59.08736115 -0.1139679 58.41346741 C-0.11327341 56.25998574 -0.10550283 54.10659148 -0.09765625 51.953125 C-0.09579042 50.45668586 -0.09436729 48.96024612 -0.09336853 47.46380615 C-0.08955635 43.53141585 -0.07973717 39.59906268 -0.06866455 35.66668701 C-0.05842249 31.65149437 -0.05386492 27.6362957 -0.04882812 23.62109375 C-0.03811372 15.74737693 -0.02052745 7.87369736 0 0 Z " fill="#1e3a8a" transform="translate(619,72)"/>
<path d="M0 0 C8.1675 -0.0928125 8.1675 -0.0928125 16.5 -0.1875 C18.20220703 -0.21481201 19.90441406 -0.24212402 21.65820312 -0.27026367 C23.03254491 -0.27903909 24.40689459 -0.28668052 25.78125 -0.29296875 C26.82104004 -0.3159906 26.82104004 -0.3159906 27.88183594 -0.33947754 C33.79276043 -0.34258637 39.21659142 0.87751662 44.0234375 4.54296875 C48.82905972 10.39027209 50.32602299 15.44825607 49.875 23 C49.11008947 28.65859951 47.57678332 33.59100722 43.3203125 37.5703125 C38.72955525 41.01830614 34.9853717 42.13452161 29.234375 42.09765625 C28.43225586 42.09515869 27.63013672 42.09266113 26.80371094 42.09008789 C25.79598633 42.08098389 24.78826172 42.07187988 23.75 42.0625 C20.5325 42.041875 17.315 42.02125 14 42 C14 49.26 14 56.52 14 64 C9.38 64 4.76 64 0 64 C0 42.88 0 21.76 0 0 Z M14 12 C14 17.94 14 23.88 14 30 C16.536875 30.0825 19.07375 30.165 21.6875 30.25 C22.47729248 30.28641602 23.26708496 30.32283203 24.08081055 30.36035156 C27.84305113 30.41933725 29.65673278 30.20876806 32.9609375 28.19921875 C35.75658575 25.18398893 35.92872104 23.06290069 36 19 C35.30097293 16.14034381 34.8391842 14.60479859 32.43359375 12.87109375 C28.90084188 11.60656138 25.44758116 11.79072677 21.75 11.875 C17.91375 11.936875 17.91375 11.936875 14 12 Z " fill="#C9003D" transform="translate(603,186)"/>
<path d="M0 0 C7.26 0 14.52 0 22 0 C22 27.72 22 55.44 22 84 C14.74 84 7.48 84 0 84 C0 56.28 0 28.56 0 0 Z " fill="#1e3a8a" transform="translate(347,72)"/>
<path d="M0 0 C5.615542 3.39824645 9.42705285 8.24617554 11.5 14.4375 C13.23083102 24.4316533 12.72611482 33.15584929 7 41.7109375 C4.54104258 44.54129994 1.87791008 45.84414619 -1.5 47.4375 C-2.49 47.9325 -2.49 47.9325 -3.5 48.4375 C-12.14402364 49.23525452 -20.16935686 49.67826644 -27.5078125 44.390625 C-33.4847873 38.53084578 -35.21356536 31.50573778 -35.5703125 23.33203125 C-35.38438265 15.67791912 -33.67123352 9.57426052 -28.08203125 4.03125 C-20.56759644 -2.61390572 -9.26647167 -4.17618549 0 0 Z M-20.5 14.4375 C-22.8002957 19.87456257 -22.93070018 24.77645612 -21.5 30.4375 C-19.84755475 33.57144788 -18.45428335 35.68065458 -15.6875 37.875 C-12.28739025 38.74931393 -9.87376979 38.34118834 -6.5 37.4375 C-2.52200884 34.10458849 -1.45726607 30.02814837 -0.62109375 25.0703125 C-0.37127563 19.63878314 -2.24609056 15.3415847 -5.1875 10.875 C-11.36474922 7.03508832 -16.49631593 8.90299555 -20.5 14.4375 Z " fill="#CA003D" transform="translate(691.5,203.5625)"/>
<path d="M0 0 C4.68902145 3.33641911 6.87315746 5.39688374 8 11.125 C8.0825 12.176875 8.165 13.22875 8.25 14.3125 C4.29 14.6425 0.33 14.9725 -3.75 15.3125 C-4.74 13.6625 -5.73 12.0125 -6.75 10.3125 C-8.66408549 9.46931384 -8.66408549 9.46931384 -10.75 9.4375 C-11.430625 9.37820312 -12.11125 9.31890625 -12.8125 9.2578125 C-14.9703688 9.2252145 -14.9703688 9.2252145 -17.75 10.3125 C-17.75 11.6325 -17.75 12.9525 -17.75 14.3125 C-17.17032471 14.47854736 -16.59064941 14.64459473 -15.9934082 14.81567383 C-13.34758555 15.5780833 -10.70507961 16.35142825 -8.0625 17.125 C-7.15048828 17.38603516 -6.23847656 17.64707031 -5.29882812 17.91601562 C5.79185616 21.18272627 5.79185616 21.18272627 8.5390625 25.1953125 C9.88419772 29.20115474 9.78327132 33.15166698 9.25 37.3125 C6.94222754 41.92804492 3.61248272 46.12620353 -1.421875 47.90234375 C-9.89096225 49.39438093 -20.18105903 49.59680621 -27.75 45.3125 C-31.16425601 42.46728666 -32.63728812 39.85004896 -33.5625 35.4375 C-33.624375 34.40625 -33.68625 33.375 -33.75 32.3125 C-29.46 32.3125 -25.17 32.3125 -20.75 32.3125 C-20.09 33.6325 -19.43 34.9525 -18.75 36.3125 C-14.49199462 37.73183513 -10.52088462 38.03901677 -6.3125 36.3125 C-5.5390625 35.8175 -5.5390625 35.8175 -4.75 35.3125 C-4.75 34.3225 -4.75 33.3325 -4.75 32.3125 C-5.32443848 32.12139648 -5.89887695 31.93029297 -6.49072266 31.73339844 C-9.12198043 30.85224784 -11.74842509 29.95750814 -14.375 29.0625 C-15.27863281 28.76214844 -16.18226563 28.46179688 -17.11328125 28.15234375 C-29.44545017 23.92159967 -29.44545017 23.92159967 -31.75 19.3125 C-32.26848559 14.11064462 -32.37018013 9.67689629 -30.1875 4.875 C-22.64292563 -3.05647562 -10.09887656 -4.65955698 0 0 Z " fill="#CA003D" transform="translate(742.75,203.6875)"/>
<path d="M0 0 C4.29 0 8.58 0 13 0 C13 4.29 13 8.58 13 13 C14.98 13 16.96 13 19 13 C19 15.97 19 18.94 19 22 C17.02 22 15.04 22 13 22 C13 31.57 13 41.14 13 51 C14.98 51 16.96 51 19 51 C19 54.3 19 57.6 19 61 C16.91695462 61.05418326 14.83350232 61.09287551 12.75 61.125 C11.58984375 61.14820313 10.4296875 61.17140625 9.234375 61.1953125 C6.12271895 61.00741056 4.53015683 60.75253982 2 59 C-0.46105545 55.30841682 -0.25575793 52.53376446 -0.1953125 48.26953125 C-0.1924826 47.51911057 -0.18965271 46.76868988 -0.18673706 45.99552917 C-0.17555062 43.60102325 -0.15044928 41.20689269 -0.125 38.8125 C-0.11496819 37.18815645 -0.10584269 35.56380703 -0.09765625 33.93945312 C-0.07561637 29.959491 -0.0410974 25.97980912 0 22 C-1.98 22 -3.96 22 -6 22 C-6 19.03 -6 16.06 -6 13 C-4.02 13 -2.04 13 0 13 C0 8.71 0 4.42 0 0 Z " fill="#CA003D" transform="translate(762,191)"/>
<path d="M0 0 C-2.80296832 9.8559247 -6.27012475 19.46988005 -9.6875 29.125 C-10.30034373 30.86190384 -10.91297574 32.59888241 -11.52539062 34.3359375 C-13.01448612 38.55815756 -14.50644779 42.77935449 -16 47 C-16.66 47 -17.32 47 -18 47 C-19.45951119 44.41732587 -20.91764881 41.83389259 -22.375 39.25 C-22.7875 38.52039062 -23.2 37.79078125 -23.625 37.0390625 C-24.02460938 36.33007812 -24.42421875 35.62109375 -24.8359375 34.890625 C-25.20251465 34.24125977 -25.5690918 33.59189453 -25.94677734 32.92285156 C-27.01554043 30.97162809 -28.01758503 28.99589444 -29 27 C-25.19776083 23.14844023 -21.38908788 19.30340607 -17.57421875 15.46435547 C-16.27651486 14.15657422 -14.98060901 12.84700631 -13.68652344 11.53564453 C-11.82953602 9.65448499 -9.96624438 7.77977878 -8.1015625 5.90625 C-7.52129303 5.31565796 -6.94102356 4.72506592 -6.34317017 4.11657715 C-2.22774341 0 -2.22774341 0 0 0 Z " fill="#1e3a8a" transform="translate(214,0)"/>
<path d="M0 0 C7.26 0 14.52 0 22 0 C22 6.6 22 13.2 22 20 C14.74 20 7.48 20 0 20 C0 13.4 0 6.8 0 0 Z " fill="#1e3a8a" transform="translate(347,43)"/>
</svg>
